<svg width="109" height="32" viewBox="0 0 109 32" fill="none" xmlns="http://www.w3.org/2000/svg">
  <style>
    .logo-text {
      fill: black;
    }
    .logo-background {
      fill: #3C6AF5;
    }
    .w-letter {
      fill: white;
    }
  </style>
  <path class="logo-text" d="M81.2606 18.0364C81.2606 14.3516 83.8788 11.7334 87.4667 11.7334C91.103 11.7334 93.6727 14.3516 93.6727 18.0364C93.6727 21.7213 91.0546 24.3395 87.4667 24.3395C83.8788 24.3879 81.2606 21.7213 81.2606 18.0364ZM90.9576 18.0364C90.9576 15.8061 89.4546 14.3516 87.4667 14.3516C85.4788 14.3516 84.0243 15.8061 84.0243 18.0364C84.0243 20.2667 85.5273 21.7213 87.4667 21.7213C89.4546 21.7213 90.9576 20.3152 90.9576 18.0364Z"/>
  <path class="logo-text" d="M62.8364 8.6789C63.8545 8.6789 64.5818 7.90314 64.5818 6.88496C64.5818 5.91526 63.8545 5.18799 62.8364 5.18799C61.8182 5.18799 61.0909 5.96375 61.0909 6.93344C61.0424 7.90314 61.8182 8.6789 62.8364 8.6789Z"/>
  <path class="logo-text" d="M47.1757 23.8061L49.503 18.3273L51.8303 23.8061L51.8788 23.8546H54.0606L54.1091 23.8061L58.8606 12.5576H56.1454L52.9454 20.0728L50.8606 15.1273L51.9273 12.5576H49.2121L46.0606 20.0728L42.8606 12.5576H40.1454L44.897 23.8061L44.9454 23.8546H47.1273C47.1757 23.8061 47.1757 23.8061 47.1757 23.8061Z"/>
  <path class="logo-text" d="M102.497 11.7334C98.9091 11.7334 96.2909 14.3516 96.2909 18.0364C96.2909 21.7213 98.9091 23.9031 102.497 23.9031C103.806 23.9031 105.067 23.3698 105.891 22.5455V23.6607C105.891 24.9698 105.551 25.8425 104.921 26.4728C104.339 27.0061 103.515 27.297 102.642 27.297C101.188 27.297 100.024 26.4728 99.4909 25.1152L96.8242 25.8425C97.6969 28.2182 99.8788 29.8182 102.642 29.8182C104.824 29.8182 106.667 28.8486 107.782 27.2486C108.461 26.2789 108.751 25.0667 108.751 23.9031V18.3758C108.751 14.3516 106.133 11.7334 102.497 11.7334ZM102.497 21.5273C100.509 21.5273 99.0545 20.1213 99.0545 17.9395C99.0545 15.7576 100.558 14.3516 102.497 14.3516C104.485 14.3516 105.988 15.7576 105.988 17.9395C105.988 20.1213 104.485 21.5273 102.497 21.5273Z"/>
  <path class="logo-text" d="M61.3333 12.5575V23.903H64.2424V11.7817L61.3333 12.5575Z"/>
  <path class="logo-text" d="M75.006 5.18787V23.903H77.9151V4.41211L75.006 5.18787Z"/>
  <path class="logo-text" d="M68.1697 5.18787V23.903H71.0788V4.41211L68.1697 5.18787Z"/>
  <path class="w-letter" d="M20.5576 15.6122L19.1515 18.9091L21.3333 24.097L23.7091 23.4667L30.1091 8.4364C29.6242 7.51518 29.0424 6.64246 28.3636 5.8667L22.4 19.8788L20.5576 15.6122Z"/>
  <path class="w-letter" d="M18.6667 9.6001L14.3515 19.8789L9.98786 9.6001H7.12726L13.2848 24.0971L15.6606 23.4668L21.5273 9.6001H18.6667Z"/>
  <path class="logo-background" d="M23.7091 23.4667L21.3333 24.097L19.1515 18.9091L20.5576 15.5636L22.4 19.8303L28.3636 5.7697C25.4061 2.27879 20.9455 0 16 0C7.17576 0 0 7.17576 0 16C0 24.8242 7.17576 32 16 32C24.8242 32 32 24.8242 32 16C32 13.2364 31.3212 10.6667 30.0606 8.38788L23.7091 23.4667ZM15.6606 23.4667L13.2848 24.097L7.12727 9.6H9.98788L14.3515 19.8788L18.7152 9.6H21.5758L15.6606 23.4667Z"/>
</svg>
