<?xml version="1.0" encoding="UTF-8"?>
<svg version="1.1" xmlns="http://www.w3.org/2000/svg" width="450" height="144" viewBox="-300 -100 600 200">
<g>
<path d="M0 0 C2.17042632 1.64078304 4.21121327 3.3411657 6.2265625 5.16796875 C6.83628906 5.709375 7.44601563 6.25078125 8.07421875 6.80859375 C20.70353388 18.688477 28.83050851 35.52799836 29.5078125 52.8359375 C29.99666505 74.40444912 25.41786013 93.10457811 10.2265625 109.16796875 C-1.00209769 120.84813101 -16.84066696 130.29791212 -33.35375977 131.32910156 C-58.02042698 131.70767449 -76.87976697 127.4472621 -95.09765625 109.93359375 C-110.72189538 93.69924002 -115.23978833 74.94437881 -114.9765625 53.0703125 C-114.49065335 34.08133857 -104.6047188 17.49354013 -91.1484375 4.54296875 C-65.05781556 -18.06623584 -28.26527229 -18.67100381 0 0 Z " fill="#3C6AF5" transform="translate(114.7734375,12.83203125)"/>
<path d="M0 0 C4.29 0 8.58 0 13 0 C19.96360132 14.40199364 25.95166774 29.19746338 32 44 C34.76927857 40.68479707 36.38170332 37.10739119 37.99609375 33.14453125 C38.2709108 32.48345871 38.54572784 31.82238617 38.82887268 31.14128113 C39.70377559 29.03386016 40.57090964 26.92335098 41.4375 24.8125 C42.58010896 22.04737992 43.72564687 19.28347667 44.87109375 16.51953125 C45.14384125 15.85970245 45.41658875 15.19987366 45.69760132 14.52005005 C47.71859797 9.64195466 49.82240844 4.80996269 52 0 C56.29 0 60.58 0 65 0 C62.79967836 7.00495841 60.07047316 13.61900988 57.0625 20.3125 C53.87959973 27.44429403 50.73333372 34.58622795 47.71484375 41.7890625 C47.17248871 43.07773664 46.63009004 44.36639241 46.08764648 45.6550293 C45.29559107 47.53766016 44.50668373 49.42130926 43.72732544 51.30923462 C43.00331094 53.06235075 42.26753196 54.8105943 41.53125 56.55859375 C41.11423828 57.56204834 40.69722656 58.56550293 40.26757812 59.59936523 C39 62 39 62 36 64 C33.73828125 64.4140625 33.73828125 64.4140625 31.3125 64.625 C30.10013672 64.73714844 30.10013672 64.73714844 28.86328125 64.8515625 C28.24839844 64.90054688 27.63351563 64.94953125 27 65 C26.20442708 63.10286458 25.40885417 61.20572917 24.61328125 59.30859375 C24.35973373 58.70400833 24.10618622 58.09942291 23.84495544 57.47651672 C22.41693257 54.07134747 20.98908152 50.66610632 19.56152344 47.26074219 C16.77562493 40.61560757 13.98866201 33.97093042 11.19572449 27.32875061 C10.00049379 24.48608861 8.8060505 21.64309606 7.61166382 18.80007935 C7.03834864 17.43604202 6.46464002 16.07217 5.89053345 14.70846558 C5.08748866 12.80085061 4.28579027 10.892675 3.484375 8.984375 C2.79939941 7.35580566 2.79939941 7.35580566 2.10058594 5.69433594 C1.33553613 3.82142341 0.6397736 1.91932079 0 0 Z " fill="#FAFBFE" transform="translate(32,43)"/>
<path d="M0 0 C4.08769803 1.75729214 6.02303995 3.88898411 8.234375 7.70166016 C9.73202021 12.19746119 7.49685073 15.64468084 5.5 19.6875 C4.53543229 21.77507183 3.57630565 23.86516193 2.62109375 25.95703125 C2.34764633 26.54508545 2.07419891 27.13313965 1.79246521 27.73901367 C-0.43204102 32.57801666 -2.40827632 37.49395544 -4.33883667 42.45692444 C-5.93945234 46.57095263 -7.57491672 50.67080043 -9.21142578 54.7706604 C-10.02726888 56.83632168 -10.829278 58.90750166 -11.6171875 60.98397827 C-12.74476155 63.94211606 -13.92621233 66.8732077 -15.12109375 69.8046875 C-15.61185646 71.15157906 -15.61185646 71.15157906 -16.11253357 72.52568054 C-17.19826764 75.0999989 -18.08519246 76.95924109 -20 79 C-23.64437989 80.33521895 -27.13606736 80.80249633 -31 81 C-32.37774944 78.35048185 -33.69453998 75.68540576 -35 73 C-35.56332031 71.90042969 -36.12664062 70.80085938 -36.70703125 69.66796875 C-41.75390828 59.15269223 -41.75390828 59.15269223 -40.0625 54 C-39.078125 51.91015625 -39.078125 51.91015625 -38 50 C-37.443125 48.824375 -36.88625 47.64875 -36.3125 46.4375 C-35.879375 45.633125 -35.44625 44.82875 -35 44 C-31.82920985 45.58539507 -31.17307375 48.80411145 -29.875 51.9375 C-29.59785156 52.58396484 -29.32070312 53.23042969 -29.03515625 53.89648438 C-27 58.72371459 -27 58.72371459 -27 61 C-26.34 61 -25.68 61 -25 61 C-24.9086377 60.35393799 -24.81727539 59.70787598 -24.72314453 59.04223633 C-23.74427074 54.92415856 -22.10352117 51.20348268 -20.4296875 47.32421875 C-20.0703714 46.48139847 -19.7110553 45.63857819 -19.34085083 44.7702179 C-18.19002316 42.07404857 -17.03254347 39.38079181 -15.875 36.6875 C-15.11936964 34.91880003 -14.36415735 33.14992139 -13.609375 31.38085938 C-9.12989296 20.89554517 -4.58967598 10.43751503 0 0 Z " fill="#FAFBFE" transform="translate(127,27)"/>
</g>
</svg>
